<svg version="1.1" id="Layer_1" xmlns="http://www.w3.org/2000/svg" xmlns:xlink="http://www.w3.org/1999/xlink" x="0px" y="0px"
	 width="100%" viewBox="0 0 256 256" enable-background="new 0 0 256 256" xml:space="preserve">
<path fill="#070707" opacity="1.000000" stroke="none" 
	d="
M176.000000,257.000000 
	C117.333336,257.000000 59.166672,257.000000 1.000008,257.000000 
	C1.000005,171.666672 1.000005,86.333351 1.000003,1.000019 
	C86.333321,1.000013 171.666641,1.000013 257.000000,1.000006 
	C257.000000,86.333313 257.000000,171.666626 257.000000,256.999969 
	C230.166672,257.000000 203.333328,257.000000 176.000000,257.000000 
M60.882782,93.181282 
	C60.882782,93.181282 60.857143,93.197433 61.717873,93.546143 
	C61.531139,94.048622 61.344410,94.551109 60.413116,95.064819 
	C57.864349,96.285980 55.666397,97.618980 57.963169,100.219604 
	C56.497196,102.095497 54.956375,104.067169 53.395267,106.064789 
	C55.104786,106.988289 56.013893,107.479393 56.203285,108.015961 
	C51.510490,109.634628 50.247669,111.726875 52.291271,115.716927 
	C50.704063,117.372238 49.116856,119.027550 47.529648,120.682861 
	C47.860512,121.026031 48.191376,121.369194 48.522240,121.712357 
	C62.913288,117.330910 77.271042,118.094536 92.077736,121.383125 
	C90.202286,118.887817 88.130798,116.324158 85.501137,115.461037 
	C76.502480,112.507462 67.244980,112.055664 57.930481,114.263412 
	C56.999435,114.484093 55.933796,114.136955 54.959625,113.227943 
	C66.154945,109.409302 77.264778,110.459801 88.324051,114.390305 
	C88.626999,113.806885 88.929947,113.223457 89.232903,112.640038 
	C87.160728,111.091362 85.088554,109.542694 82.454956,107.512375 
	C83.229240,106.856041 84.003532,106.199707 84.777824,105.543373 
	C85.517685,104.957664 86.257545,104.371948 86.997406,103.786240 
	C85.253929,101.912682 83.510452,100.039131 81.766968,98.165573 
	C82.621574,98.115417 82.124138,96.263420 79.472878,95.027596 
	C77.886490,94.288139 75.968971,94.259087 74.093040,93.539230 
	C74.093040,93.539230 74.056114,93.154327 74.840935,93.023285 
	C75.896240,92.936562 76.951546,92.849838 78.560867,92.949493 
	C78.639946,92.636047 78.719025,92.322601 78.738998,91.300842 
	C77.668114,90.549110 76.597229,89.797371 75.258278,88.024231 
	C76.432343,87.798126 77.606407,87.572021 78.536278,87.392944 
	C80.567970,82.353836 78.157532,80.381935 73.623840,80.414200 
	C69.397972,80.444283 65.175293,80.923355 60.625248,81.226501 
	C60.850754,84.117348 61.001347,86.047844 61.146957,87.914490 
	C62.961708,87.662560 64.511276,87.447449 65.859032,88.312317 
	C65.573730,88.541931 65.288429,88.771553 64.247231,88.977089 
	C63.143570,89.835709 62.039909,90.694336 60.963100,91.581337 
	C60.963100,91.581337 60.945992,91.543694 60.963619,91.582558 
	C60.963619,91.582558 60.926678,91.587196 60.404591,91.973007 
	C60.561459,92.376328 60.718330,92.779640 60.882782,93.181282 
M93.808296,127.332436 
	C92.627808,126.318550 91.608887,124.829758 90.241699,124.364639 
	C77.365601,119.984177 64.296471,119.825516 51.327072,123.696991 
	C48.868046,124.431038 47.008743,127.174179 44.243423,129.142731 
	C43.438877,132.566299 43.565590,132.688141 48.045559,133.668686 
	C42.985550,141.541885 38.365337,149.520737 41.962830,159.757339 
	C48.560184,157.786819 55.172825,155.811722 61.353237,153.965729 
	C61.943439,150.342468 62.450649,147.228683 62.941582,145.015625 
	C62.941582,147.694977 62.941582,150.374329 62.941582,151.911316 
	C68.929054,152.257690 73.967278,152.549149 79.649696,153.148727 
	C82.783768,154.748718 85.917839,156.348694 88.540924,158.692062 
	C76.727165,152.836517 64.917366,153.608536 53.078476,158.645737 
	C51.714474,159.226089 50.220295,159.547760 48.756439,159.837814 
	C42.968475,160.984619 37.240986,165.531097 30.958599,158.781601 
	C31.402573,162.700424 31.681429,165.161804 32.031113,168.248367 
	C38.302486,166.729630 44.421753,165.247726 51.216446,163.965729 
	C51.805717,164.292145 52.394989,164.618561 52.277420,165.258514 
	C48.446209,166.262131 44.574196,167.138489 40.808350,168.345963 
	C39.660030,168.714157 37.967308,169.971664 37.944057,170.859070 
	C37.725101,179.217209 37.813923,187.583389 37.813923,195.557358 
	C48.948643,194.085831 59.388336,192.706146 70.199097,191.277420 
	C70.199097,181.357361 70.199097,171.309845 70.199097,160.787628 
	C65.645325,161.864090 61.333393,162.883377 56.994015,162.973465 
	C56.999001,162.663620 57.003990,162.353790 57.728268,161.724152 
	C64.399117,160.169235 70.974098,157.446259 77.901573,160.993423 
	C77.851540,161.301392 77.801506,161.609344 76.904770,161.872818 
	C75.537102,161.559357 74.169434,161.245880 72.382896,160.836411 
	C72.382896,171.838959 72.382896,182.225403 72.382896,192.027557 
	C81.401016,193.006821 90.206573,193.963013 99.622406,195.064636 
	C99.746429,194.710114 99.870445,194.355606 100.206055,193.084671 
	C100.172134,185.396622 100.138214,177.708588 100.131592,169.299438 
	C99.719650,169.093033 99.307701,168.886627 98.727966,168.313950 
	C98.469643,168.229034 98.236961,168.098434 97.997177,167.319458 
	C98.003273,166.917236 98.009369,166.515015 98.749100,166.145920 
	C100.778404,166.730698 102.807716,167.315460 105.254173,168.020432 
	C105.660660,165.466003 106.014168,163.244537 106.410851,160.751694 
	C101.782860,163.304733 96.360100,162.503769 92.649261,158.180771 
	C94.202553,158.550201 95.755844,158.919617 97.334785,159.295135 
	C99.239273,151.821228 99.354652,144.933640 95.030174,138.501770 
	C94.123268,137.152939 93.647064,135.514542 93.559425,133.694534 
	C94.612251,131.876282 99.990028,130.466492 93.808296,127.332436 
M56.961952,63.668163 
	C52.903599,67.409218 55.982433,70.923843 56.526833,75.167183 
	C63.140205,69.368256 69.703995,69.352913 76.135551,72.390106 
	C74.412033,72.240311 72.688522,72.090515 70.731796,71.920448 
	C70.852936,74.334496 70.942047,76.110298 71.036613,77.994781 
	C73.509598,78.277168 75.706169,78.527992 79.289078,78.937126 
	C78.127350,75.877846 77.323669,73.761444 77.281364,71.346916 
	C79.517723,71.855705 81.266281,72.720299 80.098404,76.031769 
	C80.177696,76.294472 80.256989,76.557167 80.336281,76.819870 
	C80.630547,76.622940 80.924812,76.426003 81.911034,75.917847 
	C82.644821,74.127190 83.940964,72.347031 83.974670,70.543289 
	C84.020134,68.110428 81.832985,64.591995 82.825264,63.419754 
	C85.611725,60.127953 82.844757,58.575424 81.267731,57.953678 
	C76.511131,56.078365 75.849426,52.019814 74.832924,47.992912 
	C73.784203,43.838356 72.776962,39.672970 71.682297,35.530628 
	C71.407524,34.490879 70.867439,33.521240 70.299767,32.161144 
	C69.460335,33.064201 69.149223,33.257515 69.046982,33.529381 
	C65.719185,42.378593 66.541367,53.327274 56.063034,58.585030 
	C54.734676,59.251560 53.185394,61.587368 57.039982,62.570919 
	C57.154404,62.715313 57.268829,62.859703 56.961952,63.668163 
M180.633972,151.525101 
	C182.295441,152.302719 183.957764,153.739899 185.618240,153.737778 
	C191.238800,153.730652 196.587646,153.784668 202.263550,151.189087 
	C209.090164,148.067291 221.627380,155.478699 224.767670,163.118774 
	C226.773682,167.999222 228.037247,173.184814 229.633682,178.233612 
	C230.711517,175.641785 231.676575,172.490860 230.532166,170.654617 
	C226.975128,164.947266 228.969788,159.551743 230.093475,153.939865 
	C230.365250,152.582550 230.149200,150.042694 229.487167,149.787811 
	C227.546692,149.040833 225.245422,148.876114 223.129272,149.041946 
	C221.078934,149.202606 218.855255,150.910309 217.106094,150.444046 
	C212.057968,149.098404 207.258606,146.846725 202.259354,145.276245 
	C200.431900,144.702164 198.095581,144.445908 196.376526,145.083328 
	C191.961761,146.720261 189.668320,146.134171 187.375351,141.451050 
	C186.825226,143.494827 186.384903,145.130646 185.838379,147.161026 
	C184.533600,145.192612 183.308487,143.634216 182.399063,141.909393 
	C180.731674,138.747131 179.397263,136.208176 174.633575,137.528793 
	C172.348160,138.162354 167.894608,137.152802 168.773605,132.304779 
	C169.271515,129.558563 168.341736,128.714981 165.560989,129.058090 
	C158.715088,129.902802 152.346680,125.027184 150.907547,118.070892 
	C149.695740,112.213470 148.457779,111.438644 142.788315,113.688278 
	C140.185684,114.721001 138.151123,115.256500 136.517059,112.292908 
	C131.826096,103.785156 122.395218,101.094521 115.508110,95.277756 
	C113.843071,93.871483 111.586884,92.294304 111.185600,90.451073 
	C110.441307,87.032356 108.244415,86.355667 105.590881,85.903954 
	C103.213585,85.499260 100.800392,85.305443 98.464821,85.025978 
	C96.978287,87.230766 95.562035,89.331329 94.050568,91.573112 
	C89.675430,86.557465 89.447495,86.592041 84.136856,92.636650 
	C86.355125,97.900978 88.799911,103.186523 90.823090,108.628799 
	C93.650002,116.233101 97.036522,123.783867 98.574821,131.671295 
	C100.273155,140.379288 102.217468,143.303680 111.172958,144.291138 
	C112.124130,144.396011 113.410828,144.681412 113.886749,145.349655 
	C116.969170,149.677628 124.572235,147.723724 126.101494,154.187103 
	C126.178352,154.511948 127.271622,154.612259 127.899773,154.787994 
	C131.031586,155.664200 134.166122,156.530685 137.414505,157.432449 
	C139.960297,154.290634 150.512817,155.403351 156.457779,159.649612 
	C162.834473,152.833282 170.804077,150.429962 180.633972,151.525101 
M219.088242,160.472931 
	C214.259216,155.954697 205.596176,153.384079 201.881638,155.544266 
	C204.052521,156.621490 206.108353,157.641632 208.164185,158.661774 
	C208.028061,159.112045 207.891953,159.562317 207.755844,160.012573 
	C195.800522,155.754959 183.749344,156.841263 171.548096,158.459518 
	C173.799637,157.454620 176.051178,156.449738 179.217529,155.036560 
	C170.826111,153.559189 161.306564,157.415985 158.872971,163.705475 
	C155.713150,171.871948 152.849335,180.314148 151.286072,188.897736 
	C149.173447,200.497696 151.912109,204.057129 163.207214,208.227142 
	C164.298813,208.630157 165.446777,208.890411 166.516876,209.339996 
	C170.493256,211.010529 173.231888,209.936523 174.706848,205.728653 
	C171.842606,204.057571 168.980972,202.388016 166.119354,200.718460 
	C181.803253,206.197418 197.180786,206.135834 212.796463,200.799652 
	C210.192154,202.396606 207.587845,203.993561 205.071899,205.536316 
	C207.126999,210.388474 210.384277,211.079208 214.533173,209.170746 
	C217.697418,207.715225 220.920074,206.363312 223.982697,204.716064 
	C228.042877,202.532288 229.801163,199.150574 229.269775,194.383789 
	C227.966309,182.690979 225.142670,171.481537 219.088242,160.472931 
M68.866432,72.688225 
	C66.285645,72.688225 63.704853,72.688225 60.577469,72.688225 
	C61.336643,75.434052 61.834003,77.232918 62.390598,79.246040 
	C64.818321,78.708557 66.825706,78.264137 68.930000,77.798264 
	C68.930000,76.168030 68.930000,74.863228 68.866432,72.688225 
M57.628864,75.213043 
	C57.967609,75.657074 58.306355,76.101105 58.645096,76.545135 
	C58.549187,75.932724 58.453278,75.320305 57.628864,75.213043 
z"/>
<path fill="#0C67C7" opacity="1.000000" stroke="none" 
	d="
M180.263733,151.296722 
	C170.804077,150.429962 162.834473,152.833282 156.457779,159.649612 
	C150.512817,155.403351 139.960297,154.290634 137.414505,157.432449 
	C134.166122,156.530685 131.031586,155.664200 127.899773,154.787994 
	C127.271622,154.612259 126.178352,154.511948 126.101494,154.187103 
	C124.572235,147.723724 116.969170,149.677628 113.886749,145.349655 
	C113.410828,144.681412 112.124130,144.396011 111.172958,144.291138 
	C102.217468,143.303680 100.273155,140.379288 98.574821,131.671295 
	C97.036522,123.783867 93.650002,116.233101 90.823090,108.628799 
	C88.799911,103.186523 86.355125,97.900978 84.136856,92.636650 
	C89.447495,86.592041 89.675430,86.557465 94.050568,91.573112 
	C95.562035,89.331329 96.978287,87.230766 98.464821,85.025978 
	C100.800392,85.305443 103.213585,85.499260 105.590881,85.903954 
	C108.244415,86.355667 110.441307,87.032356 111.185600,90.451073 
	C111.586884,92.294304 113.843071,93.871483 115.508110,95.277756 
	C122.395218,101.094521 131.826096,103.785156 136.517059,112.292908 
	C138.151123,115.256500 140.185684,114.721001 142.788315,113.688278 
	C148.457779,111.438644 149.695740,112.213470 150.907547,118.070892 
	C152.346680,125.027184 158.715088,129.902802 165.560989,129.058090 
	C168.341736,128.714981 169.271515,129.558563 168.773605,132.304779 
	C167.894608,137.152802 172.348160,138.162354 174.633575,137.528793 
	C179.397263,136.208176 180.731674,138.747131 182.399063,141.909393 
	C183.308487,143.634216 184.533600,145.192612 185.838379,147.161026 
	C186.384903,145.130646 186.825226,143.494827 187.375351,141.451050 
	C189.668320,146.134171 191.961761,146.720261 196.376526,145.083328 
	C198.095581,144.445908 200.431900,144.702164 202.259354,145.276245 
	C207.258606,146.846725 212.057968,149.098404 217.106094,150.444046 
	C218.855255,150.910309 221.078934,149.202606 223.129272,149.041946 
	C225.245422,148.876114 227.546692,149.040833 229.487167,149.787811 
	C230.149200,150.042694 230.365250,152.582550 230.093475,153.939865 
	C228.969788,159.551743 226.975128,164.947266 230.532166,170.654617 
	C231.676575,172.490860 230.711517,175.641785 229.633682,178.233612 
	C228.037247,173.184814 226.773682,167.999222 224.767670,163.118774 
	C221.627380,155.478699 209.090164,148.067291 202.263550,151.189087 
	C196.587646,153.784668 191.238800,153.730652 185.618240,153.737778 
	C183.957764,153.739899 182.295441,152.302719 180.263733,151.296722 
z"/>
<path fill="#0C67C6" opacity="1.000000" stroke="none" 
	d="
M219.310410,160.769455 
	C225.142670,171.481537 227.966309,182.690979 229.269775,194.383789 
	C229.801163,199.150574 228.042877,202.532288 223.982697,204.716064 
	C220.920074,206.363312 217.697418,207.715225 214.533173,209.170746 
	C210.384277,211.079208 207.126999,210.388474 205.071899,205.536316 
	C207.587845,203.993561 210.192154,202.396606 212.796463,200.799652 
	C197.180786,206.135834 181.803253,206.197418 166.119354,200.718460 
	C168.980972,202.388016 171.842606,204.057571 174.706848,205.728653 
	C173.231888,209.936523 170.493256,211.010529 166.516876,209.339996 
	C165.446777,208.890411 164.298813,208.630157 163.207214,208.227142 
	C151.912109,204.057129 149.173447,200.497696 151.286072,188.897736 
	C152.849335,180.314148 155.713150,171.871948 158.872971,163.705475 
	C161.306564,157.415985 170.826111,153.559189 179.217529,155.036560 
	C176.051178,156.449738 173.799637,157.454620 171.548096,158.459518 
	C183.749344,156.841263 195.800522,155.754959 207.755844,160.012573 
	C207.891953,159.562317 208.028061,159.112045 208.164185,158.661774 
	C206.108353,157.641632 204.052521,156.621490 201.881638,155.544266 
	C205.596176,153.384079 214.259216,155.954697 219.310410,160.769455 
M172.032791,180.510666 
	C169.007523,186.055328 170.761917,191.676132 176.030838,191.851440 
	C178.510040,191.933914 182.404343,190.287720 183.237625,188.372208 
	C184.208298,186.140808 183.386658,182.108368 181.804749,180.025787 
	C179.394974,176.853378 175.686310,177.431396 172.032791,180.510666 
M202.453278,178.038818 
	C196.242722,179.278717 193.343079,183.890671 195.989197,188.429550 
	C197.770264,191.484604 200.748886,193.206223 203.889023,191.786743 
	C206.063492,190.803772 208.369705,188.229843 208.923431,185.954620 
	C209.927246,181.830139 207.267120,179.188843 202.453278,178.038818 
z"/>
<path fill="#EDEDED" opacity="1.000000" stroke="none" 
	d="
M57.021461,163.902664 
	C61.333393,162.883377 65.645325,161.864090 70.199097,160.787628 
	C70.199097,171.309845 70.199097,181.357361 70.199097,191.277420 
	C59.388336,192.706146 48.948643,194.085831 37.813923,195.557358 
	C37.813923,187.583389 37.725101,179.217209 37.944057,170.859070 
	C37.967308,169.971664 39.660030,168.714157 40.808350,168.345963 
	C44.574196,167.138489 48.446209,166.262131 52.934624,165.144028 
	C54.735043,164.653915 55.878250,164.278290 57.021461,163.902664 
z"/>
<path fill="#F0F0F0" opacity="1.000000" stroke="none" 
	d="
M98.029915,167.922150 
	C98.236961,168.098434 98.469643,168.229034 98.960297,168.767014 
	C99.496513,169.486908 99.800400,169.753723 100.104294,170.020538 
	C100.138214,177.708588 100.172134,185.396622 99.896019,193.648773 
	C99.325569,194.392151 99.134285,194.627594 99.012131,194.919205 
	C90.206573,193.963013 81.401016,193.006821 72.382896,192.027557 
	C72.382896,182.225403 72.382896,171.838959 72.382896,160.836411 
	C74.169434,161.245880 75.537102,161.559357 77.605453,162.072708 
	C84.880730,164.155792 91.455322,166.038971 98.029915,167.922150 
z"/>
<path fill="#EFEFEF" opacity="1.000000" stroke="none" 
	d="
M76.610535,71.740440 
	C69.703995,69.352913 63.140205,69.368256 56.526833,75.167183 
	C55.982433,70.923843 52.903599,67.409218 57.501686,63.339500 
	C58.866566,62.754822 59.691715,62.498806 60.516865,62.242790 
	C60.439640,61.962196 60.362415,61.681606 60.285191,61.401012 
	C59.113701,61.630093 57.942207,61.859173 56.770714,62.088253 
	C53.185394,61.587368 54.734676,59.251560 56.063034,58.585030 
	C66.541367,53.327274 65.719185,42.378593 69.046982,33.529381 
	C69.149223,33.257515 69.460335,33.064201 70.299767,32.161144 
	C70.867439,33.521240 71.407524,34.490879 71.682297,35.530628 
	C72.776962,39.672970 73.784203,43.838356 74.832924,47.992912 
	C75.849426,52.019814 76.511131,56.078365 81.267731,57.953678 
	C82.844757,58.575424 85.611725,60.127953 82.825264,63.419754 
	C81.832985,64.591995 84.020134,68.110428 83.974670,70.543289 
	C83.940964,72.347031 82.644821,74.127190 81.356796,75.885254 
	C80.647697,75.747581 80.492851,75.642509 80.337997,75.537430 
	C81.266281,72.720299 79.517723,71.855705 76.915237,71.527496 
	C76.549110,71.708076 76.610535,71.740440 76.610535,71.740440 
M68.852432,53.834480 
	C70.225487,53.769012 71.598541,53.703545 73.402855,53.617516 
	C72.388855,49.334641 71.505142,45.602066 70.289680,40.468250 
	C68.678535,45.443928 67.461220,49.122700 66.371353,52.838844 
	C66.323486,53.002071 67.441750,53.507298 68.852432,53.834480 
M64.477089,60.727314 
	C63.930698,60.618546 63.384304,60.509777 62.837914,60.401009 
	C62.831909,60.793869 62.825905,61.186726 62.819901,61.579590 
	C63.369404,61.486061 63.918911,61.392532 64.477089,60.727314 
M75.868523,61.808483 
	C75.751244,61.352070 75.633972,60.895653 75.516693,60.439240 
	C75.168312,60.617661 74.819939,60.796082 74.471558,60.974503 
	C74.765312,61.271458 75.059067,61.568413 75.868523,61.808483 
z"/>
<path fill="#F0F0F0" opacity="1.000000" stroke="none" 
	d="
M62.957855,144.114899 
	C62.450649,147.228683 61.943439,150.342468 61.353237,153.965729 
	C55.172825,155.811722 48.560184,157.786819 41.962830,159.757339 
	C38.365337,149.520737 42.985550,141.541885 48.403206,133.168793 
	C49.201241,131.773605 49.641632,130.878311 50.028908,129.980011 
	C49.975792,129.976990 49.962692,130.082596 50.297626,130.080841 
	C52.349293,131.686493 54.066025,133.293915 56.063873,135.124847 
	C57.253193,136.557617 58.161396,137.766876 59.375328,139.101151 
	C60.783978,140.567734 61.886902,141.909317 62.972748,143.466553 
	C62.955669,143.682220 62.957855,144.114899 62.957855,144.114899 
z"/>
<path fill="#F1F1F2" opacity="1.000000" stroke="none" 
	d="
M89.051910,157.948669 
	C85.917839,156.348694 82.783768,154.748718 79.318954,152.749451 
	C78.988205,152.350159 78.943245,151.861465 78.950256,151.426178 
	C78.514175,146.206360 79.004356,141.805344 83.599319,138.920471 
	C83.959717,138.694199 83.852921,137.723816 84.113487,136.848145 
	C84.576485,136.369263 84.889252,136.141495 85.527428,135.862000 
	C87.908310,134.226700 89.963783,132.643143 92.016907,131.022522 
	C92.014557,130.985443 91.940269,130.985779 91.619537,131.221130 
	C91.856659,132.307510 92.414520,133.158539 92.972389,134.009567 
	C93.647064,135.514542 94.123268,137.152939 95.030174,138.501770 
	C99.354652,144.933640 99.239273,151.821228 97.334785,159.295135 
	C95.755844,158.919617 94.202553,158.550201 92.313385,158.570374 
	C91.977516,158.959976 92.043755,158.953232 92.079987,158.501724 
	C91.077843,158.012177 90.039459,157.974136 89.006561,157.967407 
	C89.012054,157.998718 89.051910,157.948685 89.051910,157.948669 
z"/>
<path fill="#E7E7E7" opacity="1.000000" stroke="none" 
	d="
M50.541016,163.765839 
	C44.421753,165.247726 38.302486,166.729630 32.031113,168.248367 
	C31.681429,165.161804 31.402573,162.700424 30.958599,158.781601 
	C37.240986,165.531097 42.968475,160.984619 48.756439,159.837814 
	C50.220295,159.547760 51.714474,159.226089 53.078476,158.645737 
	C64.917366,153.608536 76.727165,152.836517 88.796417,158.320374 
	C89.051910,157.948685 89.012054,157.998718 88.977722,158.409363 
	C89.976852,158.864426 91.010300,158.908829 92.043755,158.953232 
	C92.043755,158.953232 91.977516,158.959976 91.983978,158.927246 
	C96.360100,162.503769 101.782860,163.304733 106.410851,160.751694 
	C106.014168,163.244537 105.660660,165.466003 105.254173,168.020432 
	C102.807716,167.315460 100.778404,166.730698 98.055534,165.946899 
	C90.903717,163.852371 84.445465,161.956863 77.987213,160.061340 
	C70.974098,157.446259 64.399117,160.169235 56.991104,161.855316 
	C54.349632,162.579575 52.445324,163.172699 50.541016,163.765839 
z"/>
<path fill="#E2E2E2" opacity="1.000000" stroke="none" 
	d="
M56.922997,107.970505 
	C56.013893,107.479393 55.104786,106.988289 53.395267,106.064789 
	C54.956375,104.067169 56.497196,102.095497 57.963169,100.219604 
	C55.666397,97.618980 57.864349,96.285980 61.173706,95.049110 
	C62.519302,94.425522 63.104313,93.817642 63.689323,93.209755 
	C62.771633,92.657494 61.853939,92.105225 60.936249,91.552963 
	C62.039909,90.694336 63.143570,89.835709 65.078506,89.012207 
	C68.889702,88.891975 71.869637,88.736641 75.025330,88.687820 
	C75.201088,88.794334 75.526344,89.045639 75.526344,89.045639 
	C76.597229,89.797371 77.668114,90.549110 78.603958,91.743164 
	C78.261948,92.335670 78.107925,92.528206 78.006851,92.763107 
	C76.951546,92.849838 75.896240,92.936562 74.357964,92.706657 
	C71.099785,90.174843 68.697151,90.110313 65.880142,93.910728 
	C69.332169,93.910728 71.766228,93.910728 74.200287,93.910721 
	C75.968971,94.259087 77.886490,94.288139 79.472878,95.027596 
	C82.124138,96.263420 82.621574,98.115417 81.766968,98.165573 
	C83.510452,100.039131 85.253929,101.912682 86.997406,103.786240 
	C86.257545,104.371948 85.517685,104.957664 84.777824,105.543373 
	C84.003532,106.199707 83.229240,106.856041 82.415283,107.763977 
	C80.601784,107.489319 78.827957,106.963051 77.113602,105.963852 
	C72.438087,105.177414 67.703102,104.863914 62.968113,104.550415 
	C62.962612,105.190910 62.957111,105.831398 62.655800,106.642059 
	C60.547661,107.198311 58.735329,107.584412 56.922997,107.970505 
z"/>
<path fill="#E7E7E7" opacity="1.000000" stroke="none" 
	d="
M44.872726,128.990311 
	C47.008743,127.174179 48.868046,124.431038 51.327072,123.696991 
	C64.296471,119.825516 77.365601,119.984177 90.241699,124.364639 
	C91.608887,124.829758 92.627808,126.318550 93.920952,128.059631 
	C93.335831,129.519806 92.638046,130.252792 91.940269,130.985779 
	C91.940269,130.985779 92.014557,130.985443 92.076691,130.598038 
	C92.089287,130.051956 92.077209,129.781342 91.984909,129.750458 
	C78.195839,125.136848 64.181847,126.949432 50.192150,128.381348 
	C50.059017,128.394974 50.036728,129.491592 49.962692,130.082596 
	C49.962692,130.082596 49.975792,129.976990 49.688828,129.728210 
	C47.926662,128.996796 45.921711,133.419556 44.872726,128.990311 
z"/>
<path fill="#EBEBEB" opacity="1.000000" stroke="none" 
	d="
M54.930622,114.053329 
	C55.933796,114.136955 56.999435,114.484093 57.930481,114.263412 
	C67.244980,112.055664 76.502480,112.507462 85.501137,115.461037 
	C88.130798,116.324158 90.202286,118.887817 92.077736,121.383125 
	C77.271042,118.094536 62.913288,117.330910 48.522240,121.712357 
	C48.191376,121.369194 47.860512,121.026031 47.529648,120.682861 
	C49.116856,119.027550 50.704063,117.372238 52.123886,115.348015 
	C51.956497,114.979103 51.938148,115.021431 52.213455,115.406174 
	C53.341736,115.190613 54.194710,114.590302 55.011520,113.993080 
	C54.975361,113.996170 54.930622,114.053329 54.930622,114.053329 
z"/>
<path fill="#E9E9E9" opacity="1.000000" stroke="none" 
	d="
M77.054123,106.436783 
	C78.827957,106.963051 80.601784,107.489319 82.695999,108.004799 
	C85.088554,109.542694 87.160728,111.091362 89.232903,112.640038 
	C88.929947,113.223457 88.626999,113.806885 88.324051,114.390305 
	C77.264778,110.459801 66.154945,109.409302 54.945122,113.640640 
	C54.930622,114.053329 54.975361,113.996170 54.714653,113.701675 
	C53.615345,113.945267 52.776745,114.483345 51.938148,115.021431 
	C51.938148,115.021431 51.956497,114.979103 51.976898,114.981781 
	C50.247669,111.726875 51.510490,109.634628 56.563141,107.993240 
	C58.735329,107.584412 60.547661,107.198311 63.090088,106.449684 
	C68.231499,106.203697 72.642807,106.320236 77.054123,106.436783 
z"/>
<path fill="#E9E9E9" opacity="1.000000" stroke="none" 
	d="
M78.943245,151.861465 
	C78.943245,151.861465 78.988205,152.350159 78.996857,152.595383 
	C73.967278,152.549149 68.929054,152.257690 62.941582,151.911316 
	C62.941582,150.374329 62.941582,147.694977 62.949718,144.565262 
	C62.957855,144.114899 62.955669,143.682220 63.436333,143.429932 
	C64.245461,143.175247 64.574867,143.155472 64.902252,143.173096 
	C68.969437,143.391968 73.267296,142.935410 76.982300,144.195755 
	C78.345886,144.658340 78.329918,149.187363 78.943245,151.861465 
z"/>
<path fill="#E4E4E4" opacity="1.000000" stroke="none" 
	d="
M75.392311,88.534935 
	C75.526344,89.045639 75.201088,88.794334 74.995667,88.344147 
	C72.088081,84.933830 69.144592,85.157768 66.060844,87.232330 
	C64.511276,87.447449 62.961708,87.662560 61.146957,87.914490 
	C61.001347,86.047844 60.850754,84.117348 60.625248,81.226501 
	C65.175293,80.923355 69.397972,80.444283 73.623840,80.414200 
	C78.157532,80.381935 80.567970,82.353836 78.536278,87.392944 
	C77.606407,87.572021 76.432343,87.798126 75.392311,88.534935 
z"/>
<path fill="#EBEBEB" opacity="1.000000" stroke="none" 
	d="
M76.534554,71.676559 
	C77.323669,73.761444 78.127350,75.877846 79.289078,78.937126 
	C75.706169,78.527992 73.509598,78.277168 71.036613,77.994781 
	C70.942047,76.110298 70.852936,74.334496 70.731796,71.920448 
	C72.688522,72.090515 74.412033,72.240311 76.373047,72.065277 
	C76.610535,71.740440 76.549110,71.708076 76.534554,71.676559 
z"/>
<path fill="#E4E4E4" opacity="1.000000" stroke="none" 
	d="
M68.898216,73.123322 
	C68.930000,74.863228 68.930000,76.168030 68.930000,77.798264 
	C66.825706,78.264137 64.818321,78.708557 62.390598,79.246040 
	C61.834003,77.232918 61.336643,75.434052 60.577469,72.688225 
	C63.704853,72.688225 66.285645,72.688225 68.898216,73.123322 
z"/>
<path fill="#232323" opacity="1.000000" stroke="none" 
	d="
M77.944397,160.527374 
	C84.445465,161.956863 90.903717,163.852371 97.688721,165.930328 
	C98.009369,166.515015 98.003273,166.917236 98.013550,167.620804 
	C91.455322,166.038971 84.880730,164.155792 78.028809,162.094955 
	C77.801506,161.609344 77.851540,161.301392 77.944397,160.527374 
z"/>
<path fill="#D8D8D8" opacity="1.000000" stroke="none" 
	d="
M65.959938,87.772324 
	C69.144592,85.157768 72.088081,84.933830 74.819901,88.237633 
	C71.869637,88.736641 68.889702,88.891975 65.456451,89.024246 
	C65.288429,88.771553 65.573730,88.541931 65.959938,87.772324 
z"/>
<path fill="#D8D8D8" opacity="1.000000" stroke="none" 
	d="
M74.146667,93.724976 
	C71.766228,93.910728 69.332169,93.910728 65.880142,93.910728 
	C68.697151,90.110313 71.099785,90.174843 73.965553,92.772179 
	C74.056114,93.154327 74.093040,93.539230 74.146667,93.724976 
z"/>
<path fill="#151514" opacity="1.000000" stroke="none" 
	d="
M44.558075,129.066528 
	C45.921711,133.419556 47.926662,128.996796 49.741943,129.731232 
	C49.641632,130.878311 49.201241,131.773605 48.497223,132.824142 
	C43.565590,132.688141 43.438877,132.566299 44.558075,129.066528 
z"/>
<path fill="#151514" opacity="1.000000" stroke="none" 
	d="
M91.619537,131.221130 
	C92.638046,130.252792 93.335831,129.519806 94.065781,128.389587 
	C99.990028,130.466492 94.612251,131.876282 93.265907,133.852051 
	C92.414520,133.158539 91.856659,132.307510 91.619537,131.221130 
z"/>
<path fill="#252525" opacity="1.000000" stroke="none" 
	d="
M50.878731,163.865784 
	C52.445324,163.172699 54.349632,162.579575 56.631458,162.015228 
	C57.003990,162.353790 56.999001,162.663620 57.007736,163.438065 
	C55.878250,164.278290 54.735043,164.653915 53.288044,164.987259 
	C52.394989,164.618561 51.805717,164.292145 50.878731,163.865784 
z"/>
<path fill="#D8D8D8" opacity="1.000000" stroke="none" 
	d="
M60.949677,91.567154 
	C61.853939,92.105225 62.771633,92.657494 63.689323,93.209755 
	C63.104313,93.817642 62.519302,94.425522 61.545982,95.043495 
	C61.344410,94.551109 61.531139,94.048622 61.462288,93.115051 
	C61.119801,92.303871 61.032894,91.923782 60.945992,91.543694 
	C60.945992,91.543694 60.963100,91.581337 60.949677,91.567154 
z"/>
<path fill="#EDEDED" opacity="1.000000" stroke="none" 
	d="
M56.905350,62.329586 
	C57.942207,61.859173 59.113701,61.630093 60.285191,61.401012 
	C60.362415,61.681606 60.439640,61.962196 60.516865,62.242790 
	C59.691715,62.498806 58.866566,62.754822 57.712334,63.007462 
	C57.268829,62.859703 57.154404,62.715313 56.905350,62.329586 
z"/>
<path fill="#EDEDED" opacity="1.000000" stroke="none" 
	d="
M57.993118,74.960464 
	C58.453278,75.320305 58.549187,75.932724 58.645096,76.545135 
	C58.306355,76.101105 57.967609,75.657074 57.993118,74.960464 
z"/>
<path fill="#D8D8D8" opacity="1.000000" stroke="none" 
	d="
M78.283859,92.856300 
	C78.107925,92.528206 78.261948,92.335670 78.633514,92.097321 
	C78.719025,92.322601 78.639946,92.636047 78.283859,92.856300 
z"/>
<path fill="#E2E2E2" opacity="1.000000" stroke="none" 
	d="
M60.954803,91.563126 
	C61.032894,91.923782 61.119801,92.303871 61.031921,92.940697 
	C60.857143,93.197433 60.882782,93.181282 60.906250,92.783463 
	C60.928707,92.119484 60.927692,91.853340 60.926678,91.587196 
	C60.926678,91.587196 60.963619,91.582558 60.954803,91.563126 
z"/>
<path fill="#FFFFFF" opacity="1.000000" stroke="none" 
	d="
M100.117935,169.659988 
	C99.800400,169.753723 99.496513,169.486908 99.044189,168.950150 
	C99.307701,168.886627 99.719650,169.093033 100.117935,169.659988 
z"/>
<path fill="#D8D8D8" opacity="1.000000" stroke="none" 
	d="
M60.665634,91.780106 
	C60.927692,91.853340 60.928707,92.119484 60.902462,92.784302 
	C60.718330,92.779640 60.561459,92.376328 60.665634,91.780106 
z"/>
<path fill="#EDEDED" opacity="1.000000" stroke="none" 
	d="
M81.010818,76.040863 
	C80.924812,76.426003 80.630547,76.622940 80.336281,76.819870 
	C80.256989,76.557167 80.177696,76.294472 80.218201,75.784599 
	C80.492851,75.642509 80.647697,75.747581 81.010818,76.040863 
z"/>
<path fill="#FFFFFF" opacity="1.000000" stroke="none" 
	d="
M99.317268,194.991913 
	C99.134285,194.627594 99.325569,194.392151 99.790222,194.106979 
	C99.870445,194.355606 99.746429,194.710114 99.317268,194.991913 
z"/>
<path fill="#08090C" opacity="1.000000" stroke="none" 
	d="
M172.295654,180.231720 
	C175.686310,177.431396 179.394974,176.853378 181.804749,180.025787 
	C183.386658,182.108368 184.208298,186.140808 183.237625,188.372208 
	C182.404343,190.287720 178.510040,191.933914 176.030838,191.851440 
	C170.761917,191.676132 169.007523,186.055328 172.295654,180.231720 
z"/>
<path fill="#08080B" opacity="1.000000" stroke="none" 
	d="
M202.842346,178.067169 
	C207.267120,179.188843 209.927246,181.830139 208.923431,185.954620 
	C208.369705,188.229843 206.063492,190.803772 203.889023,191.786743 
	C200.748886,193.206223 197.770264,191.484604 195.989197,188.429550 
	C193.343079,183.890671 196.242722,179.278717 202.842346,178.067169 
z"/>
<path fill="#1A1919" opacity="1.000000" stroke="none" 
	d="
M68.434631,53.843849 
	C67.441750,53.507298 66.323486,53.002071 66.371353,52.838844 
	C67.461220,49.122700 68.678535,45.443928 70.289680,40.468250 
	C71.505142,45.602066 72.388855,49.334641 73.402855,53.617516 
	C71.598541,53.703545 70.225487,53.769012 68.434631,53.843849 
z"/>
<path fill="#EDEDED" opacity="1.000000" stroke="none" 
	d="
M64.472748,61.013161 
	C63.918911,61.392532 63.369404,61.486061 62.819901,61.579590 
	C62.825905,61.186726 62.831909,60.793869 62.837914,60.401009 
	C63.384304,60.509777 63.930698,60.618546 64.472748,61.013161 
z"/>
<path fill="#EDEDED" opacity="1.000000" stroke="none" 
	d="
M75.610672,61.836926 
	C75.059067,61.568413 74.765312,61.271458 74.471558,60.974503 
	C74.819939,60.796082 75.168312,60.617661 75.516693,60.439240 
	C75.633972,60.895653 75.751244,61.352070 75.610672,61.836926 
z"/>
<path fill="#151514" opacity="1.000000" stroke="none" 
	d="
M50.297623,130.080841 
	C50.036728,129.491592 50.059017,128.394974 50.192150,128.381348 
	C64.181847,126.949432 78.195839,125.136848 91.984909,129.750458 
	C92.077209,129.781342 92.089287,130.051956 92.079041,130.635101 
	C89.963783,132.643143 87.908310,134.226700 85.490227,135.504822 
	C86.452217,132.258820 83.973213,132.330231 82.497925,132.300568 
	C74.762695,132.145096 67.020126,132.076996 59.288902,132.293213 
	C58.096806,132.326553 56.950333,133.991150 55.782761,134.901337 
	C54.066025,133.293915 52.349293,131.686493 50.297623,130.080841 
z"/>
<path fill="#EBEBEB" opacity="1.000000" stroke="none" 
	d="
M56.063873,135.124847 
	C56.950333,133.991150 58.096806,132.326553 59.288902,132.293213 
	C67.020126,132.076996 74.762695,132.145096 82.497925,132.300568 
	C83.973213,132.330231 86.452217,132.258820 85.164818,135.556564 
	C84.889252,136.141495 84.576485,136.369263 83.699570,136.914001 
	C76.550995,137.491470 69.964149,137.705719 63.383999,138.048431 
	C61.933697,138.123978 60.507107,138.654922 59.069599,138.976151 
	C58.161396,137.766876 57.253193,136.557617 56.063873,135.124847 
z"/>
<path fill="#060606" opacity="1.000000" stroke="none" 
	d="
M59.375328,139.101151 
	C60.507107,138.654922 61.933697,138.123978 63.383999,138.048431 
	C69.964149,137.705719 76.550995,137.491470 83.549347,137.165115 
	C83.852921,137.723816 83.959717,138.694199 83.599319,138.920471 
	C79.004356,141.805344 78.514175,146.206360 78.950256,151.426178 
	C78.329918,149.187363 78.345886,144.658340 76.982300,144.195755 
	C73.267296,142.935410 68.969437,143.391968 64.902252,143.173096 
	C64.574867,143.155472 64.245461,143.175247 63.453407,143.214264 
	C61.886902,141.909317 60.783978,140.567734 59.375328,139.101151 
z"/>
<path fill="#070707" opacity="1.000000" stroke="none" 
	d="
M92.079987,158.501724 
	C91.010300,158.908829 89.976852,158.864426 88.972237,158.378052 
	C90.039459,157.974136 91.077843,158.012177 92.079987,158.501724 
z"/>
<path fill="#343433" opacity="1.000000" stroke="none" 
	d="
M77.113602,105.963852 
	C72.642807,106.320236 68.231499,106.203697 63.385899,106.279526 
	C62.957111,105.831398 62.962612,105.190910 62.968113,104.550415 
	C67.703102,104.863914 72.438087,105.177414 77.113602,105.963852 
z"/>
<path fill="#070707" opacity="1.000000" stroke="none" 
	d="
M52.213455,115.406174 
	C52.776745,114.483345 53.615345,113.945267 54.750816,113.698593 
	C54.194710,114.590302 53.341736,115.190613 52.213455,115.406174 
z"/>
</svg>